<svg width="19" height="21" viewBox="0 0 19 21" fill="none" xmlns="http://www.w3.org/2000/svg">
<path d="M3.04658 0.427612H16.4466C17.5766 0.427612 18.4966 1.34761 18.4966 2.48761V20.4276L16.3466 18.5276L15.1366 17.4076L13.8566 16.2176L14.3866 18.0676H3.04658C1.91658 18.0676 0.996582 17.1476 0.996582 16.0076V2.48761C0.996582 1.34761 1.91658 0.427612 3.04658 0.427612ZM11.9266 12.6776C12.2266 13.0576 12.5866 13.4876 12.5866 13.4876C14.7966 13.4176 15.6466 11.9676 15.6466 11.9676C15.6466 8.74761 14.2066 6.13761 14.2066 6.13761C12.7666 5.05761 11.3966 5.08761 11.3966 5.08761L11.2566 5.24761C12.9566 5.76761 13.7466 6.51761 13.7466 6.51761C12.2143 5.67253 10.4507 5.34296 8.71658 5.57761C8.66458 5.57761 8.61958 5.58561 8.56858 5.59361L8.54658 5.59761C8.19658 5.62761 7.34658 5.75761 6.27658 6.22761C5.90658 6.39761 5.68658 6.51761 5.68658 6.51761C5.68658 6.51761 6.51658 5.72761 8.31658 5.20761L8.21658 5.08761C8.21658 5.08761 6.84658 5.05761 5.40658 6.13761C5.40658 6.13761 3.96658 8.74761 3.96658 11.9676C3.96658 11.9676 4.80658 13.4176 7.01658 13.4876C7.01658 13.4876 7.38658 13.0376 7.68658 12.6576C6.41658 12.2776 5.93658 11.4776 5.93658 11.4776C5.93658 11.4776 6.03658 11.5476 6.21658 11.6476C6.2425 11.6694 6.27105 11.6879 6.30158 11.7026C6.55066 11.843 6.80969 11.965 7.07658 12.0676C7.48658 12.2276 7.97658 12.3876 8.54658 12.4976C9.29658 12.6376 10.1766 12.6876 11.1366 12.5076C11.6066 12.4276 12.0866 12.2876 12.5866 12.0776C12.9366 11.9476 13.3266 11.7576 13.7366 11.4876C13.7366 11.4876 13.2366 12.3076 11.9266 12.6776ZM11.5866 8.81761C11.0166 8.81761 10.5666 9.31761 10.5666 9.92761C10.5666 10.5376 11.0266 11.0376 11.5866 11.0376C12.1566 11.0376 12.6066 10.5376 12.6066 9.92761C12.6066 9.31761 12.1566 8.81761 11.5866 8.81761ZM6.91658 9.92761C6.91658 9.31761 7.36658 8.81761 7.93658 8.81761C8.50658 8.81761 8.96658 9.31761 8.95658 9.92761C8.95658 10.5376 8.50658 11.0376 7.93658 11.0376C7.37658 11.0376 6.91658 10.5376 6.91658 9.92761Z" fill="white"/>
</svg>
