<svg width="23" height="19" viewBox="0 0 23 19" fill="none" xmlns="http://www.w3.org/2000/svg">
<path fill-rule="evenodd" clip-rule="evenodd" d="M22.35 4.24033L20.25 3.34033L21.35 0.940332L18.79 1.79033C17.9746 1.03026 16.9046 0.602276 15.79 0.590332C13.307 0.595831 11.2955 2.60733 11.29 5.09033V6.09033C7.75 6.82033 4.66 4.89033 1.79 1.59033C1.29 4.257 1.79 6.257 3.29 7.59033L0 7.09033C0.262324 9.27631 2.05215 10.9609 4.25 11.0903L1.5 12.0903C2.5 14.0903 4.32 14.4003 6.75 14.5903C4.76382 15.945 2.40357 16.6443 0 16.5903C12.76 22.2603 20.25 13.9303 20.25 6.59033V5.76033L22.35 4.24033Z" fill="white"/>
</svg>
